<?xml version="1.0" encoding="UTF-8"?>
<svg xmlns="http://www.w3.org/2000/svg" xmlns:xlink="http://www.w3.org/1999/xlink" width="70px" height="70px" viewBox="0 0 70 70" version="1.1">
<g id="surface1">
<path style=" stroke:none;fill-rule:nonzero;fill:rgb(0%,0%,0%);fill-opacity:1;" d="M 56.09375 3.613281 L 41.488281 25.289062 C 40.476562 26.765625 42.417969 28.550781 43.816406 27.308594 L 58.191406 14.800781 C 58.578125 14.488281 59.125 14.722656 59.125 15.265625 L 59.125 54.34375 C 59.125 54.890625 58.425781 55.121094 58.113281 54.734375 L 14.605469 2.679688 C 13.207031 0.972656 11.1875 0.0390625 8.933594 0.0390625 L 7.378906 0.0390625 C 3.339844 0.0390625 0 3.378906 0 7.496094 L 0 62.503906 C 0 66.621094 3.339844 69.960938 7.457031 69.960938 C 10.023438 69.960938 12.429688 68.640625 13.828125 66.386719 L 28.433594 44.710938 C 29.445312 43.234375 27.503906 41.449219 26.105469 42.691406 L 11.730469 55.121094 C 11.34375 55.433594 10.800781 55.199219 10.800781 54.65625 L 10.800781 15.65625 C 10.800781 15.109375 11.5 14.878906 11.808594 15.265625 L 55.316406 67.320312 C 56.714844 69.027344 58.8125 69.960938 60.988281 69.960938 L 62.542969 69.960938 C 66.660156 69.960938 70 66.621094 70 62.503906 L 70 7.496094 C 70 3.378906 66.660156 0.0390625 62.542969 0.0390625 C 59.898438 0.0390625 57.492188 1.359375 56.09375 3.613281 Z M 56.09375 3.613281 "/>
</g>
</svg>
